# xmcd
#
# Track frame offsets:
#	150
#	20900
#	41417
#	62190
#	82275
#	102315
#	121660
#	138715
#	158587
#	179395
#
# Disc length: 2660 seconds
#
# Revision: 5
# Processed by: cddbd v1.5.2PL0 Copyright (c) Steve Scherf et al.
# Submitted via: EasyCDDAExtractor 15.3.0.1
#
DISCID=890a620a
DTITLE=Saned - Prohibido
DYEAR=1999
DGENRE=Latin
TTITLE0=Prohibido
TTITLE1=Yo Te Sigo Queriendo
TTITLE2=Si Lo Ves
TTITLE3=Dime Que Me Has Hecho
TTITLE4=No Me Vengas Con Lagrimas
TTITLE5=Corazon Encendio
TTITLE6=Baila Conmigo
TTITLE7=La Oportunidad
TTITLE8=Me Encanta
TTITLE9=Ella No Es Mi Amiga
EXTD=
EXTT0=
EXTT1=
EXTT2=
EXTT3=
EXTT4=
EXTT5=
EXTT6=
EXTT7=
EXTT8=
EXTT9=
PLAYORDER=
